[img]http://img401.imageshack.us/img401/4797/athousandwords.jpg[/img]

[b][size=200][color=black]PLOT[/color][/size][/b]

[code]After stretching the truth on a deal with a spiritual guru, literary 
agent Jack McCall finds a Bodhi tree on his property. Its appearance holds 
a valuable lesson on the consequences of every word we speak.  [/code]

[b][size=200][color=black]IMDB[/color][/size][/b]

[code]http://www.imdb.com/title/tt0763831/[/code]

[b][size=200][color=black]MOVIE INFO[/color][/size][/b]

[code]A Thousand Words [2012] BRRip x264 AAC-V3nom

Format                                   : MPEG-4
Format profile                           : Base Media / Version 2
Codec ID                                 : mp42
File size                                : 352 MiB
Duration                                 : 1h 31mn
Overall bit rate mode                    : Variable
Overall bit rate                         : 537 Kbps
Encoded date                             : UTC 2012-12-01 08:52:30
Tagged date                              : UTC 2012-12-01 09:19:27

Video
ID                                       : 1
Format                                   : AVC
Format/Info                              : Advanced Video Codec
Format profile                           : Main@L2.1
Format settings, CABAC                   : Yes
Format settings, ReFrames                : 4 frames
Codec ID                                 : avc1
Codec ID/Info                            : Advanced Video Coding
Duration                                 : 1h 31mn
Bit rate mode                            : Variable
Bit rate                                 : 403 Kbps
Width                                    : 640 pixels
Height                                   : 272 pixels
Display aspect ratio                     : 2.35:1
Frame rate mode                          : Variable
Frame rate                               : 23.976 fps
Minimum frame rate                       : 23.974 fps
Maximum frame rate                       : 23.981 fps
Color space                              : YUV
Chroma subsampling                       : 4:2:0
Bit depth                                : 8 bits
Scan type                                : Progressive
Bits/(Pixel*Frame)                       : 0.097
Stream size                              : 265 MiB (75%)
Writing library                          : x264 core 112

Audio
ID                                       : 2
Format                                   : AAC
Format/Info                              : Advanced Audio Codec
Format profile                           : LC
Codec ID                                 : 40
Duration                                 : 1h 31mn
Bit rate mode                            : Variable
Bit rate                                 : 128 Kbps
Maximum bit rate                         : 146 Kbps
Channel(s)                               : 2 channels
Channel positions                        : Front: L R
Sampling rate                            : 48.0 KHz
Compression mode                         : Lossy
Delay relative to video                  : 83ms
Stream size                              : 83.7 MiB (24%)
Encoded date                             : UTC 2012-12-01 08:52:30
Tagged date                              : UTC 2012-12-01 09:19:23[/code]

[b][size=200][color=black]SOURCE[/color][/size][/b]

[code]A Thousand Words[2012]BRRip XviD-ETRG (Thanks)[/code]

[b][size=200][color=black]SCREENSHOTS[/color][/size][/b]

[img]http://img845.imageshack.us/img845/1568/athousandwords2012brrip.jpg[/img]

[img]http://kastatic.com/i2/users/133df62bbf28e62494bb17fe11078f1a.gif[/img][img]http://kastatic.com/i2/users/133df62bbf28e62494bb17fe11078f1a.gif[/img]